<?xml version="1.0" encoding="utf-8" standalone="no"?>
<!DOCTYPE svg PUBLIC "-//W3C//DTD SVG 1.1//EN"
  "http://www.w3.org/Graphics/SVG/1.1/DTD/svg11.dtd">
<!-- Created with matplotlib (https://matplotlib.org/) -->
<svg height="204.075312pt" version="1.1" viewBox="0 0 514.803222 204.075312" width="514.803222pt" xmlns="http://www.w3.org/2000/svg" xmlns:xlink="http://www.w3.org/1999/xlink">
 <metadata>
  <rdf:RDF xmlns:cc="http://creativecommons.org/ns#" xmlns:dc="http://purl.org/dc/elements/1.1/" xmlns:rdf="http://www.w3.org/1999/02/22-rdf-syntax-ns#">
   <cc:Work>
    <dc:type rdf:resource="http://purl.org/dc/dcmitype/StillImage"/>
    <dc:date>2023-07-29T17:45:30.735367</dc:date>
    <dc:format>image/svg+xml</dc:format>
    <dc:creator>
     <cc:Agent>
      <dc:title>Matplotlib v3.3.4, https://matplotlib.org/</dc:title>
     </cc:Agent>
    </dc:creator>
   </cc:Work>
  </rdf:RDF>
 </metadata>
 <defs>
  <style type="text/css">*{stroke-linecap:butt;stroke-linejoin:round;}</style>
 </defs>
 <g id="figure_1">
  <g id="patch_1">
   <path d="M 0 204.075312 
L 514.803222 204.075312 
L 514.803222 0 
L 0 0 
z
" style="fill:#ffffff;"/>
  </g>
  <g id="axes_1">
   <g id="patch_2">
    <path d="M 60.66875 151.034063 
L 507.06875 151.034063 
L 507.06875 40.154063 
L 60.66875 40.154063 
z
" style="fill:#ffffff;"/>
   </g>
   <g id="matplotlib.axis_1">
    <g id="xtick_1">
     <g id="line2d_1">
      <defs>
       <path d="M 0 0 
L 0 3.5 
" id="m345d087d8d" style="stroke:#000000;stroke-width:0.8;"/>
      </defs>
      <g>
       <use style="stroke:#000000;stroke-width:0.8;" x="80.959659" xlink:href="#m345d087d8d" y="151.034063"/>
      </g>
     </g>
     <g id="text_1">
      <!-- 0 -->
      <g transform="translate(74.697628 171.71125)scale(0.18 -0.18)">
       <defs>
        <path d="M 46 36.53125 
Q 46 50.203125 43.4375 55.78125 
Q 40.875 61.375 34.8125 61.375 
Q 28.765625 61.375 26.171875 55.78125 
Q 23.578125 50.203125 23.578125 36.53125 
Q 23.578125 22.703125 26.171875 17.03125 
Q 28.765625 11.375 34.8125 11.375 
Q 40.828125 11.375 43.40625 17.03125 
Q 46 22.703125 46 36.53125 
z
M 64.796875 36.375 
Q 64.796875 18.265625 56.984375 8.421875 
Q 49.171875 -1.421875 34.8125 -1.421875 
Q 20.40625 -1.421875 12.59375 8.421875 
Q 4.78125 18.265625 4.78125 36.375 
Q 4.78125 54.546875 12.59375 64.375 
Q 20.40625 74.21875 34.8125 74.21875 
Q 49.171875 74.21875 56.984375 64.375 
Q 64.796875 54.546875 64.796875 36.375 
z
" id="DejaVuSans-Bold-48"/>
       </defs>
       <use xlink:href="#DejaVuSans-Bold-48"/>
      </g>
     </g>
    </g>
    <g id="xtick_2">
     <g id="line2d_2">
      <g>
       <use style="stroke:#000000;stroke-width:0.8;" x="182.924026" xlink:href="#m345d087d8d" y="151.034063"/>
      </g>
     </g>
     <g id="text_2">
      <!-- 50 -->
      <g transform="translate(170.399964 171.71125)scale(0.18 -0.18)">
       <defs>
        <path d="M 10.59375 72.90625 
L 57.328125 72.90625 
L 57.328125 59.078125 
L 25.59375 59.078125 
L 25.59375 47.796875 
Q 27.734375 48.390625 29.90625 48.703125 
Q 32.078125 49.03125 34.421875 49.03125 
Q 47.75 49.03125 55.171875 42.359375 
Q 62.59375 35.6875 62.59375 23.78125 
Q 62.59375 11.96875 54.515625 5.265625 
Q 46.4375 -1.421875 32.078125 -1.421875 
Q 25.875 -1.421875 19.796875 -0.21875 
Q 13.71875 0.984375 7.71875 3.421875 
L 7.71875 18.21875 
Q 13.671875 14.796875 19.015625 13.078125 
Q 24.359375 11.375 29.109375 11.375 
Q 35.9375 11.375 39.859375 14.71875 
Q 43.796875 18.0625 43.796875 23.78125 
Q 43.796875 29.546875 39.859375 32.859375 
Q 35.9375 36.1875 29.109375 36.1875 
Q 25.046875 36.1875 20.453125 35.125 
Q 15.875 34.078125 10.59375 31.890625 
z
" id="DejaVuSans-Bold-53"/>
       </defs>
       <use xlink:href="#DejaVuSans-Bold-53"/>
       <use x="69.580078" xlink:href="#DejaVuSans-Bold-48"/>
      </g>
     </g>
    </g>
    <g id="xtick_3">
     <g id="line2d_3">
      <g>
       <use style="stroke:#000000;stroke-width:0.8;" x="284.888394" xlink:href="#m345d087d8d" y="151.034063"/>
      </g>
     </g>
     <g id="text_3">
      <!-- 100 -->
      <g transform="translate(266.1023 171.71125)scale(0.18 -0.18)">
       <defs>
        <path d="M 11.71875 12.984375 
L 28.328125 12.984375 
L 28.328125 60.109375 
L 11.28125 56.59375 
L 11.28125 69.390625 
L 28.21875 72.90625 
L 46.09375 72.90625 
L 46.09375 12.984375 
L 62.703125 12.984375 
L 62.703125 0 
L 11.71875 0 
z
" id="DejaVuSans-Bold-49"/>
       </defs>
       <use xlink:href="#DejaVuSans-Bold-49"/>
       <use x="69.580078" xlink:href="#DejaVuSans-Bold-48"/>
       <use x="139.160156" xlink:href="#DejaVuSans-Bold-48"/>
      </g>
     </g>
    </g>
    <g id="xtick_4">
     <g id="line2d_4">
      <g>
       <use style="stroke:#000000;stroke-width:0.8;" x="386.852761" xlink:href="#m345d087d8d" y="151.034063"/>
      </g>
     </g>
     <g id="text_4">
      <!-- 150 -->
      <g transform="translate(368.066667 171.71125)scale(0.18 -0.18)">
       <use xlink:href="#DejaVuSans-Bold-49"/>
       <use x="69.580078" xlink:href="#DejaVuSans-Bold-53"/>
       <use x="139.160156" xlink:href="#DejaVuSans-Bold-48"/>
      </g>
     </g>
    </g>
    <g id="xtick_5">
     <g id="line2d_5">
      <g>
       <use style="stroke:#000000;stroke-width:0.8;" x="488.817128" xlink:href="#m345d087d8d" y="151.034063"/>
      </g>
     </g>
     <g id="text_5">
      <!-- 200 -->
      <g transform="translate(470.031035 171.71125)scale(0.18 -0.18)">
       <defs>
        <path d="M 28.8125 13.8125 
L 60.890625 13.8125 
L 60.890625 0 
L 7.90625 0 
L 7.90625 13.8125 
L 34.515625 37.3125 
Q 38.09375 40.53125 39.796875 43.609375 
Q 41.5 46.6875 41.5 50 
Q 41.5 55.125 38.0625 58.25 
Q 34.625 61.375 28.90625 61.375 
Q 24.515625 61.375 19.28125 59.5 
Q 14.0625 57.625 8.109375 53.90625 
L 8.109375 69.921875 
Q 14.453125 72.015625 20.65625 73.109375 
Q 26.859375 74.21875 32.8125 74.21875 
Q 45.90625 74.21875 53.15625 68.453125 
Q 60.40625 62.703125 60.40625 52.390625 
Q 60.40625 46.4375 57.328125 41.28125 
Q 54.25 36.140625 44.390625 27.484375 
z
" id="DejaVuSans-Bold-50"/>
       </defs>
       <use xlink:href="#DejaVuSans-Bold-50"/>
       <use x="69.580078" xlink:href="#DejaVuSans-Bold-48"/>
       <use x="139.160156" xlink:href="#DejaVuSans-Bold-48"/>
      </g>
     </g>
    </g>
    <g id="text_6">
     <!-- Step -->
     <g transform="translate(263.375469 193.131875)scale(0.18 -0.18)">
      <defs>
       <path d="M 53.515625 70.515625 
L 53.515625 60.890625 
Q 47.90625 63.578125 42.921875 64.890625 
Q 37.9375 66.21875 33.296875 66.21875 
Q 25.25 66.21875 20.875 63.09375 
Q 16.5 59.96875 16.5 54.203125 
Q 16.5 49.359375 19.40625 46.890625 
Q 22.3125 44.4375 30.421875 42.921875 
L 36.375 41.703125 
Q 47.40625 39.59375 52.65625 34.296875 
Q 57.90625 29 57.90625 20.125 
Q 57.90625 9.515625 50.796875 4.046875 
Q 43.703125 -1.421875 29.984375 -1.421875 
Q 24.8125 -1.421875 18.96875 -0.25 
Q 13.140625 0.921875 6.890625 3.21875 
L 6.890625 13.375 
Q 12.890625 10.015625 18.65625 8.296875 
Q 24.421875 6.59375 29.984375 6.59375 
Q 38.421875 6.59375 43.015625 9.90625 
Q 47.609375 13.234375 47.609375 19.390625 
Q 47.609375 24.75 44.3125 27.78125 
Q 41.015625 30.8125 33.5 32.328125 
L 27.484375 33.5 
Q 16.453125 35.6875 11.515625 40.375 
Q 6.59375 45.0625 6.59375 53.421875 
Q 6.59375 63.09375 13.40625 68.65625 
Q 20.21875 74.21875 32.171875 74.21875 
Q 37.3125 74.21875 42.625 73.28125 
Q 47.953125 72.359375 53.515625 70.515625 
z
" id="DejaVuSans-83"/>
       <path d="M 18.3125 70.21875 
L 18.3125 54.6875 
L 36.8125 54.6875 
L 36.8125 47.703125 
L 18.3125 47.703125 
L 18.3125 18.015625 
Q 18.3125 11.328125 20.140625 9.421875 
Q 21.96875 7.515625 27.59375 7.515625 
L 36.8125 7.515625 
L 36.8125 0 
L 27.59375 0 
Q 17.1875 0 13.234375 3.875 
Q 9.28125 7.765625 9.28125 18.015625 
L 9.28125 47.703125 
L 2.6875 47.703125 
L 2.6875 54.6875 
L 9.28125 54.6875 
L 9.28125 70.21875 
z
" id="DejaVuSans-116"/>
       <path d="M 56.203125 29.59375 
L 56.203125 25.203125 
L 14.890625 25.203125 
Q 15.484375 15.921875 20.484375 11.0625 
Q 25.484375 6.203125 34.421875 6.203125 
Q 39.59375 6.203125 44.453125 7.46875 
Q 49.3125 8.734375 54.109375 11.28125 
L 54.109375 2.78125 
Q 49.265625 0.734375 44.1875 -0.34375 
Q 39.109375 -1.421875 33.890625 -1.421875 
Q 20.796875 -1.421875 13.15625 6.1875 
Q 5.515625 13.8125 5.515625 26.8125 
Q 5.515625 40.234375 12.765625 48.109375 
Q 20.015625 56 32.328125 56 
Q 43.359375 56 49.78125 48.890625 
Q 56.203125 41.796875 56.203125 29.59375 
z
M 47.21875 32.234375 
Q 47.125 39.59375 43.09375 43.984375 
Q 39.0625 48.390625 32.421875 48.390625 
Q 24.90625 48.390625 20.390625 44.140625 
Q 15.875 39.890625 15.1875 32.171875 
z
" id="DejaVuSans-101"/>
       <path d="M 18.109375 8.203125 
L 18.109375 -20.796875 
L 9.078125 -20.796875 
L 9.078125 54.6875 
L 18.109375 54.6875 
L 18.109375 46.390625 
Q 20.953125 51.265625 25.265625 53.625 
Q 29.59375 56 35.59375 56 
Q 45.5625 56 51.78125 48.09375 
Q 58.015625 40.1875 58.015625 27.296875 
Q 58.015625 14.40625 51.78125 6.484375 
Q 45.5625 -1.421875 35.59375 -1.421875 
Q 29.59375 -1.421875 25.265625 0.953125 
Q 20.953125 3.328125 18.109375 8.203125 
z
M 48.6875 27.296875 
Q 48.6875 37.203125 44.609375 42.84375 
Q 40.53125 48.484375 33.40625 48.484375 
Q 26.265625 48.484375 22.1875 42.84375 
Q 18.109375 37.203125 18.109375 27.296875 
Q 18.109375 17.390625 22.1875 11.75 
Q 26.265625 6.109375 33.40625 6.109375 
Q 40.53125 6.109375 44.609375 11.75 
Q 48.6875 17.390625 48.6875 27.296875 
z
" id="DejaVuSans-112"/>
      </defs>
      <use xlink:href="#DejaVuSans-83"/>
      <use x="63.476562" xlink:href="#DejaVuSans-116"/>
      <use x="102.685547" xlink:href="#DejaVuSans-101"/>
      <use x="164.208984" xlink:href="#DejaVuSans-112"/>
     </g>
    </g>
   </g>
   <g id="matplotlib.axis_2">
    <g id="ytick_1">
     <g id="line2d_6">
      <defs>
       <path d="M 0 0 
L -3.5 0 
" id="md659c7afb6" style="stroke:#000000;stroke-width:0.8;"/>
      </defs>
      <g>
       <use style="stroke:#000000;stroke-width:0.8;" x="60.66875" xlink:href="#md659c7afb6" y="123.602328"/>
      </g>
     </g>
     <g id="text_7">
      <!-- 25 -->
      <g transform="translate(28.620625 130.440922)scale(0.18 -0.18)">
       <use xlink:href="#DejaVuSans-Bold-50"/>
       <use x="69.580078" xlink:href="#DejaVuSans-Bold-53"/>
      </g>
     </g>
    </g>
    <g id="ytick_2">
     <g id="line2d_7">
      <g>
       <use style="stroke:#000000;stroke-width:0.8;" x="60.66875" xlink:href="#md659c7afb6" y="86.406756"/>
      </g>
     </g>
     <g id="text_8">
      <!-- 50 -->
      <g transform="translate(28.620625 93.24535)scale(0.18 -0.18)">
       <use xlink:href="#DejaVuSans-Bold-53"/>
       <use x="69.580078" xlink:href="#DejaVuSans-Bold-48"/>
      </g>
     </g>
    </g>
    <g id="ytick_3">
     <g id="line2d_8">
      <g>
       <use style="stroke:#000000;stroke-width:0.8;" x="60.66875" xlink:href="#md659c7afb6" y="49.211184"/>
      </g>
     </g>
     <g id="text_9">
      <!-- 75 -->
      <g transform="translate(28.620625 56.049778)scale(0.18 -0.18)">
       <defs>
        <path d="M 6.6875 72.90625 
L 61.625 72.90625 
L 61.625 62.3125 
L 33.203125 0 
L 14.890625 0 
L 41.796875 59.078125 
L 6.6875 59.078125 
z
" id="DejaVuSans-Bold-55"/>
       </defs>
       <use xlink:href="#DejaVuSans-Bold-55"/>
       <use x="69.580078" xlink:href="#DejaVuSans-Bold-53"/>
      </g>
     </g>
    </g>
    <g id="text_10">
     <!-- Validation Accuracy -->
     <g transform="translate(20.877187 183.988125)rotate(-90)scale(0.18 -0.18)">
      <defs>
       <path d="M 28.609375 0 
L 0.78125 72.90625 
L 11.078125 72.90625 
L 34.1875 11.53125 
L 57.328125 72.90625 
L 67.578125 72.90625 
L 39.796875 0 
z
" id="DejaVuSans-86"/>
       <path d="M 34.28125 27.484375 
Q 23.390625 27.484375 19.1875 25 
Q 14.984375 22.515625 14.984375 16.5 
Q 14.984375 11.71875 18.140625 8.90625 
Q 21.296875 6.109375 26.703125 6.109375 
Q 34.1875 6.109375 38.703125 11.40625 
Q 43.21875 16.703125 43.21875 25.484375 
L 43.21875 27.484375 
z
M 52.203125 31.203125 
L 52.203125 0 
L 43.21875 0 
L 43.21875 8.296875 
Q 40.140625 3.328125 35.546875 0.953125 
Q 30.953125 -1.421875 24.3125 -1.421875 
Q 15.921875 -1.421875 10.953125 3.296875 
Q 6 8.015625 6 15.921875 
Q 6 25.140625 12.171875 29.828125 
Q 18.359375 34.515625 30.609375 34.515625 
L 43.21875 34.515625 
L 43.21875 35.40625 
Q 43.21875 41.609375 39.140625 45 
Q 35.0625 48.390625 27.6875 48.390625 
Q 23 48.390625 18.546875 47.265625 
Q 14.109375 46.140625 10.015625 43.890625 
L 10.015625 52.203125 
Q 14.9375 54.109375 19.578125 55.046875 
Q 24.21875 56 28.609375 56 
Q 40.484375 56 46.34375 49.84375 
Q 52.203125 43.703125 52.203125 31.203125 
z
" id="DejaVuSans-97"/>
       <path d="M 9.421875 75.984375 
L 18.40625 75.984375 
L 18.40625 0 
L 9.421875 0 
z
" id="DejaVuSans-108"/>
       <path d="M 9.421875 54.6875 
L 18.40625 54.6875 
L 18.40625 0 
L 9.421875 0 
z
M 9.421875 75.984375 
L 18.40625 75.984375 
L 18.40625 64.59375 
L 9.421875 64.59375 
z
" id="DejaVuSans-105"/>
       <path d="M 45.40625 46.390625 
L 45.40625 75.984375 
L 54.390625 75.984375 
L 54.390625 0 
L 45.40625 0 
L 45.40625 8.203125 
Q 42.578125 3.328125 38.25 0.953125 
Q 33.9375 -1.421875 27.875 -1.421875 
Q 17.96875 -1.421875 11.734375 6.484375 
Q 5.515625 14.40625 5.515625 27.296875 
Q 5.515625 40.1875 11.734375 48.09375 
Q 17.96875 56 27.875 56 
Q 33.9375 56 38.25 53.625 
Q 42.578125 51.265625 45.40625 46.390625 
z
M 14.796875 27.296875 
Q 14.796875 17.390625 18.875 11.75 
Q 22.953125 6.109375 30.078125 6.109375 
Q 37.203125 6.109375 41.296875 11.75 
Q 45.40625 17.390625 45.40625 27.296875 
Q 45.40625 37.203125 41.296875 42.84375 
Q 37.203125 48.484375 30.078125 48.484375 
Q 22.953125 48.484375 18.875 42.84375 
Q 14.796875 37.203125 14.796875 27.296875 
z
" id="DejaVuSans-100"/>
       <path d="M 30.609375 48.390625 
Q 23.390625 48.390625 19.1875 42.75 
Q 14.984375 37.109375 14.984375 27.296875 
Q 14.984375 17.484375 19.15625 11.84375 
Q 23.34375 6.203125 30.609375 6.203125 
Q 37.796875 6.203125 41.984375 11.859375 
Q 46.1875 17.53125 46.1875 27.296875 
Q 46.1875 37.015625 41.984375 42.703125 
Q 37.796875 48.390625 30.609375 48.390625 
z
M 30.609375 56 
Q 42.328125 56 49.015625 48.375 
Q 55.71875 40.765625 55.71875 27.296875 
Q 55.71875 13.875 49.015625 6.21875 
Q 42.328125 -1.421875 30.609375 -1.421875 
Q 18.84375 -1.421875 12.171875 6.21875 
Q 5.515625 13.875 5.515625 27.296875 
Q 5.515625 40.765625 12.171875 48.375 
Q 18.84375 56 30.609375 56 
z
" id="DejaVuSans-111"/>
       <path d="M 54.890625 33.015625 
L 54.890625 0 
L 45.90625 0 
L 45.90625 32.71875 
Q 45.90625 40.484375 42.875 44.328125 
Q 39.84375 48.1875 33.796875 48.1875 
Q 26.515625 48.1875 22.3125 43.546875 
Q 18.109375 38.921875 18.109375 30.90625 
L 18.109375 0 
L 9.078125 0 
L 9.078125 54.6875 
L 18.109375 54.6875 
L 18.109375 46.1875 
Q 21.34375 51.125 25.703125 53.5625 
Q 30.078125 56 35.796875 56 
Q 45.21875 56 50.046875 50.171875 
Q 54.890625 44.34375 54.890625 33.015625 
z
" id="DejaVuSans-110"/>
       <path id="DejaVuSans-32"/>
       <path d="M 34.1875 63.1875 
L 20.796875 26.90625 
L 47.609375 26.90625 
z
M 28.609375 72.90625 
L 39.796875 72.90625 
L 67.578125 0 
L 57.328125 0 
L 50.6875 18.703125 
L 17.828125 18.703125 
L 11.1875 0 
L 0.78125 0 
z
" id="DejaVuSans-65"/>
       <path d="M 48.78125 52.59375 
L 48.78125 44.1875 
Q 44.96875 46.296875 41.140625 47.34375 
Q 37.3125 48.390625 33.40625 48.390625 
Q 24.65625 48.390625 19.8125 42.84375 
Q 14.984375 37.3125 14.984375 27.296875 
Q 14.984375 17.28125 19.8125 11.734375 
Q 24.65625 6.203125 33.40625 6.203125 
Q 37.3125 6.203125 41.140625 7.25 
Q 44.96875 8.296875 48.78125 10.40625 
L 48.78125 2.09375 
Q 45.015625 0.34375 40.984375 -0.53125 
Q 36.96875 -1.421875 32.421875 -1.421875 
Q 20.0625 -1.421875 12.78125 6.34375 
Q 5.515625 14.109375 5.515625 27.296875 
Q 5.515625 40.671875 12.859375 48.328125 
Q 20.21875 56 33.015625 56 
Q 37.15625 56 41.109375 55.140625 
Q 45.0625 54.296875 48.78125 52.59375 
z
" id="DejaVuSans-99"/>
       <path d="M 8.5 21.578125 
L 8.5 54.6875 
L 17.484375 54.6875 
L 17.484375 21.921875 
Q 17.484375 14.15625 20.5 10.265625 
Q 23.53125 6.390625 29.59375 6.390625 
Q 36.859375 6.390625 41.078125 11.03125 
Q 45.3125 15.671875 45.3125 23.6875 
L 45.3125 54.6875 
L 54.296875 54.6875 
L 54.296875 0 
L 45.3125 0 
L 45.3125 8.40625 
Q 42.046875 3.421875 37.71875 1 
Q 33.40625 -1.421875 27.6875 -1.421875 
Q 18.265625 -1.421875 13.375 4.4375 
Q 8.5 10.296875 8.5 21.578125 
z
M 31.109375 56 
z
" id="DejaVuSans-117"/>
       <path d="M 41.109375 46.296875 
Q 39.59375 47.171875 37.8125 47.578125 
Q 36.03125 48 33.890625 48 
Q 26.265625 48 22.1875 43.046875 
Q 18.109375 38.09375 18.109375 28.8125 
L 18.109375 0 
L 9.078125 0 
L 9.078125 54.6875 
L 18.109375 54.6875 
L 18.109375 46.1875 
Q 20.953125 51.171875 25.484375 53.578125 
Q 30.03125 56 36.53125 56 
Q 37.453125 56 38.578125 55.875 
Q 39.703125 55.765625 41.0625 55.515625 
z
" id="DejaVuSans-114"/>
       <path d="M 32.171875 -5.078125 
Q 28.375 -14.84375 24.75 -17.8125 
Q 21.140625 -20.796875 15.09375 -20.796875 
L 7.90625 -20.796875 
L 7.90625 -13.28125 
L 13.1875 -13.28125 
Q 16.890625 -13.28125 18.9375 -11.515625 
Q 21 -9.765625 23.484375 -3.21875 
L 25.09375 0.875 
L 2.984375 54.6875 
L 12.5 54.6875 
L 29.59375 11.921875 
L 46.6875 54.6875 
L 56.203125 54.6875 
z
" id="DejaVuSans-121"/>
      </defs>
      <use xlink:href="#DejaVuSans-86"/>
      <use x="60.658203" xlink:href="#DejaVuSans-97"/>
      <use x="121.9375" xlink:href="#DejaVuSans-108"/>
      <use x="149.720703" xlink:href="#DejaVuSans-105"/>
      <use x="177.503906" xlink:href="#DejaVuSans-100"/>
      <use x="240.980469" xlink:href="#DejaVuSans-97"/>
      <use x="302.259766" xlink:href="#DejaVuSans-116"/>
      <use x="341.46875" xlink:href="#DejaVuSans-105"/>
      <use x="369.251953" xlink:href="#DejaVuSans-111"/>
      <use x="430.433594" xlink:href="#DejaVuSans-110"/>
      <use x="493.8125" xlink:href="#DejaVuSans-32"/>
      <use x="525.599609" xlink:href="#DejaVuSans-65"/>
      <use x="592.257812" xlink:href="#DejaVuSans-99"/>
      <use x="647.238281" xlink:href="#DejaVuSans-99"/>
      <use x="702.21875" xlink:href="#DejaVuSans-117"/>
      <use x="765.597656" xlink:href="#DejaVuSans-114"/>
      <use x="806.710938" xlink:href="#DejaVuSans-97"/>
      <use x="867.990234" xlink:href="#DejaVuSans-99"/>
      <use x="922.970703" xlink:href="#DejaVuSans-121"/>
     </g>
    </g>
   </g>
   <g id="line2d_9">
    <path clip-path="url(#pd30d255d81)" d="M 80.959659 69.534845 
L 82.998946 69.683627 
L 85.038234 70.66559 
L 87.077521 70.576321 
L 89.116808 70.739981 
L 91.156096 69.624114 
L 93.195383 71.364867 
L 95.234671 68.790933 
L 97.273958 69.981192 
L 99.313245 70.353147 
L 101.352533 69.207524 
L 105.431107 69.981192 
L 107.470395 71.33511 
L 109.509682 69.400941 
L 111.548969 69.668749 
L 113.588257 68.329708 
L 115.627544 68.850446 
L 117.666831 68.954594 
L 119.706119 69.267037 
L 121.745406 68.433856 
L 123.784693 68.627273 
L 125.823981 67.288232 
L 127.863268 66.157487 
L 129.902555 66.291391 
L 131.941843 66.931155 
L 133.98113 67.39238 
L 136.020417 66.172365 
L 142.138279 65.651627 
L 144.177567 66.63359 
L 146.216854 65.190402 
L 148.256142 65.577236 
L 150.295429 65.220158 
L 152.334716 66.023583 
L 154.374004 64.937472 
L 156.413291 64.639908 
L 158.452578 64.639908 
L 160.491866 63.77697 
L 164.57044 64.714299 
L 168.649015 62.289147 
L 170.688302 63.598432 
L 172.72759 62.839642 
L 174.766877 62.809885 
L 176.806164 64.565516 
L 180.884739 62.408173 
L 182.924026 62.943789 
L 184.963314 63.27111 
L 187.002601 61.26255 
L 189.041888 61.857679 
L 191.081176 61.723775 
L 193.120463 61.366697 
L 195.15975 61.381575 
L 201.277612 60.682299 
L 203.3169 61.128646 
L 205.356187 62.34866 
L 207.395475 61.649384 
L 209.434762 60.161561 
L 211.474049 60.682299 
L 213.513337 61.351819 
L 215.552624 59.804483 
L 217.591911 61.128646 
L 219.631199 60.369856 
L 221.670486 61.277428 
L 223.709773 61.842801 
L 225.749061 60.845959 
L 229.827635 60.488882 
L 231.866923 59.179598 
L 233.90621 61.813044 
L 235.945497 61.26255 
L 237.984785 60.950107 
L 240.024072 60.354978 
L 242.063359 59.358136 
L 244.102647 60.131804 
L 246.141934 60.176439 
L 248.181221 60.533516 
L 250.220509 59.730092 
L 252.259796 59.923509 
L 254.299083 59.224232 
L 256.338371 60.102048 
L 258.377658 59.878874 
L 260.416946 61.232793 
L 262.456233 59.83424 
L 264.49552 59.387893 
L 266.534808 60.488882 
L 268.574095 60.206195 
L 270.613382 58.420808 
L 272.65267 59.878874 
L 274.691957 59.700336 
L 276.731244 59.402771 
L 278.770532 60.444247 
L 280.809819 62.140365 
L 282.849106 58.56959 
L 284.888394 59.49204 
L 286.927681 59.774727 
L 288.966968 58.867155 
L 291.006256 59.120085 
L 293.045543 59.060572 
L 295.08483 58.257147 
L 297.124118 60.593029 
L 299.163405 58.777885 
L 301.202692 60.384734 
L 303.24198 58.06373 
L 305.281267 59.001059 
L 307.320554 58.420808 
L 309.359842 58.926668 
L 311.399129 57.825679 
L 313.438417 58.733251 
L 315.477704 58.257147 
L 317.516991 58.643981 
L 319.556279 58.867155 
L 321.595566 58.688616 
L 323.634853 57.691775 
L 325.674141 59.447406 
L 327.713428 58.093487 
L 329.752715 58.108365 
L 331.792003 58.718372 
L 333.83129 57.007376 
L 335.870577 57.468601 
L 337.909865 57.632262 
L 339.949152 58.019096 
L 341.988439 57.885192 
L 344.027727 57.989339 
L 346.067014 58.450564 
L 348.106301 57.349575 
L 354.224163 57.929826 
L 356.263451 57.022254 
L 360.342025 58.65886 
L 362.381313 57.662018 
L 366.459888 57.617384 
L 368.499175 56.828837 
L 370.538462 59.402771 
L 372.57775 58.138122 
L 374.617037 58.420808 
L 376.656324 57.438845 
L 378.695612 57.572749 
L 380.734899 57.037133 
L 382.774186 57.810801 
L 384.813474 58.06373 
L 386.852761 57.453723 
L 388.892048 58.391051 
L 390.931336 57.781044 
L 392.970623 59.060572 
L 395.00991 57.290063 
L 397.049198 57.409088 
L 399.088485 57.14128 
L 401.127772 57.557871 
L 403.16706 57.557871 
L 405.206347 58.033974 
L 409.284922 57.825679 
L 411.324209 57.453723 
L 413.363496 56.828837 
L 415.402784 57.795922 
L 417.442071 57.066889 
L 419.481358 57.751288 
L 421.520646 57.438845 
L 423.559933 57.885192 
L 425.599221 56.858594 
L 427.638508 57.483479 
L 429.677795 59.090328 
L 431.717083 56.308099 
L 433.75637 58.108365 
L 435.795657 56.561029 
L 437.834945 56.620542 
L 439.874232 58.138122 
L 441.913519 59.120085 
L 443.952807 56.813959 
L 445.992094 56.174195 
L 448.031381 57.781044 
L 450.070669 57.200793 
L 452.109956 55.861753 
L 454.149243 56.322978 
L 456.188531 56.947863 
L 458.227818 57.409088 
L 460.267105 55.608823 
L 462.306393 56.903229 
L 464.34568 56.88835 
L 466.384967 56.322978 
L 468.424255 55.995657 
L 470.463542 57.200793 
L 472.502829 57.037133 
L 474.542117 56.040291 
L 476.581404 56.337856 
L 478.620692 56.189074 
L 480.659979 56.561029 
L 482.699266 56.605664 
L 484.738554 55.861753 
L 486.777841 57.662018 
L 486.777841 57.662018 
" style="fill:none;stroke:#1f77b4;stroke-linecap:square;stroke-width:1.5;"/>
   </g>
   <g id="line2d_10">
    <path clip-path="url(#pd30d255d81)" d="M 80.959659 141.679376 
L 82.998946 141.471081 
L 85.038234 144.104527 
L 87.077521 120.492778 
L 89.116808 106.313826 
L 91.156096 98.026653 
L 93.195383 88.578978 
L 95.234671 83.832823 
L 97.273958 78.625443 
L 99.313245 77.286402 
L 101.352533 75.783701 
L 103.39182 71.721944 
L 105.431107 68.493369 
L 107.470395 70.129974 
L 109.509682 66.008705 
L 111.548969 65.071376 
L 113.588257 66.559199 
L 115.627544 66.514564 
L 117.666831 65.993826 
L 119.706119 63.315745 
L 121.745406 63.092572 
L 123.784693 60.295465 
L 125.823981 59.700336 
L 127.863268 59.224232 
L 129.902555 59.923509 
L 131.941843 58.182756 
L 133.98113 59.640823 
L 136.020417 59.715214 
L 138.059705 59.432527 
L 140.098992 58.65886 
L 144.177567 55.20711 
L 146.216854 57.676896 
L 148.256142 56.546151 
L 150.295429 54.195391 
L 152.334716 55.251745 
L 154.374004 54.716129 
L 156.413291 54.359051 
L 158.452578 54.150756 
L 160.491866 54.210269 
L 162.531153 55.013693 
L 164.57044 52.276099 
L 166.609728 51.621457 
L 168.649015 52.677812 
L 170.688302 50.75852 
L 172.72759 51.234623 
L 174.766877 52.038048 
L 176.806164 51.561944 
L 178.845452 53.793679 
L 180.884739 50.089 
L 182.924026 52.335612 
L 184.963314 50.75852 
L 187.002601 49.731922 
L 189.041888 49.478992 
L 191.081176 48.422638 
L 193.120463 48.497029 
L 195.15975 48.437516 
L 197.199038 46.518225 
L 199.238325 47.812631 
L 201.277612 47.723361 
L 203.3169 45.670166 
L 205.356187 46.488468 
L 207.395475 46.265295 
L 209.434762 47.187745 
L 211.474049 45.893339 
L 215.552624 46.131391 
L 217.591911 45.223819 
L 219.631199 46.47359 
L 221.670486 46.057 
L 223.709773 45.194063 
L 227.788348 46.235539 
L 229.827635 45.566018 
L 231.866923 46.815789 
L 233.90621 46.280173 
L 235.945497 46.354564 
L 237.984785 46.815789 
L 240.024072 46.176026 
L 242.063359 45.670166 
L 244.102647 46.607494 
L 246.141934 45.521384 
L 248.181221 46.146269 
L 250.220509 46.354564 
L 252.259796 46.919937 
L 258.377658 46.161147 
L 260.416946 46.086756 
L 262.456233 47.113354 
L 264.49552 46.235539 
L 266.534808 46.086756 
L 268.574095 46.547981 
L 270.613382 45.714801 
L 272.65267 46.711642 
L 274.691957 46.592616 
L 276.731244 46.97945 
L 278.770532 46.428955 
L 280.809819 46.577738 
L 282.849106 45.923096 
L 284.888394 45.818948 
L 286.927681 45.566018 
L 288.966968 45.937974 
L 293.045543 46.97945 
L 295.08483 46.190904 
L 297.124118 47.678727 
L 299.163405 46.771155 
L 301.202692 46.280173 
L 303.24198 46.622372 
L 305.281267 47.306771 
L 307.320554 47.39604 
L 309.359842 46.800911 
L 311.399129 47.098476 
L 313.438417 46.756277 
L 315.477704 46.250417 
L 317.516991 46.905059 
L 321.595566 46.964572 
L 323.634853 46.72652 
L 325.674141 47.172867 
L 329.752715 46.324808 
L 331.792003 46.711642 
L 333.83129 46.577738 
L 335.870577 46.786033 
L 337.909865 46.637251 
L 339.949152 47.217502 
L 341.988439 47.277015 
L 344.027727 46.428955 
L 346.067014 47.083598 
L 348.106301 47.321649 
L 350.145589 46.547981 
L 352.184876 47.217502 
L 354.224163 47.574579 
L 356.263451 47.455553 
L 360.342025 47.038963 
L 362.381313 47.23238 
L 366.459888 47.23238 
L 368.499175 47.500188 
L 370.538462 46.964572 
L 372.57775 46.681885 
L 376.656324 47.083598 
L 378.695612 47.410919 
L 380.734899 47.589457 
L 382.774186 46.607494 
L 384.813474 47.515066 
L 386.852761 46.711642 
L 388.892048 47.128232 
L 390.931336 47.009206 
L 392.970623 47.262136 
L 395.00991 47.306771 
L 397.049198 46.369443 
L 399.088485 46.860424 
L 401.127772 46.949693 
L 403.16706 48.422638 
L 405.206347 47.410919 
L 407.245634 47.038963 
L 409.284922 47.663848 
L 411.324209 47.083598 
L 413.363496 47.410919 
L 415.402784 46.711642 
L 417.442071 47.425797 
L 419.481358 47.14311 
L 423.559933 46.905059 
L 425.599221 47.916778 
L 427.638508 47.053841 
L 429.677795 47.529944 
L 431.717083 47.262136 
L 433.75637 47.797753 
L 435.795657 47.767996 
L 437.834945 47.39604 
L 439.874232 46.47359 
L 443.952807 47.172867 
L 448.031381 46.800911 
L 450.070669 47.038963 
L 452.109956 47.053841 
L 454.149243 48.15483 
L 456.188531 47.187745 
L 458.227818 48.035804 
L 460.267105 47.247258 
L 462.306393 47.455553 
L 466.384967 47.410919 
L 468.424255 46.890181 
L 470.463542 47.277015 
L 472.502829 47.366284 
L 474.542117 47.574579 
L 476.581404 47.619214 
L 478.620692 47.113354 
L 482.699266 47.321649 
L 484.738554 47.172867 
L 486.777841 46.399199 
L 486.777841 46.399199 
" style="fill:none;stroke:#ff7f0e;stroke-linecap:square;stroke-width:1.5;"/>
   </g>
   <g id="line2d_11">
    <path clip-path="url(#pd30d255d81)" d="M 80.959659 145.919671 
L 95.234671 145.889915 
L 97.273958 145.785767 
L 101.352533 145.919671 
L 107.470395 145.949428 
L 115.627544 145.93455 
L 125.823981 145.919671 
L 136.020417 145.919671 
L 144.177567 145.93455 
L 160.491866 145.904793 
L 162.531153 145.979184 
L 168.649015 145.93455 
L 180.884739 145.93455 
L 182.924026 83.326963 
L 184.963314 73.745384 
L 187.002601 73.180011 
L 189.041888 71.230963 
L 191.081176 73.804896 
L 193.120463 74.266122 
L 195.15975 70.576321 
L 197.199038 70.784616 
L 199.238325 70.204365 
L 201.277612 70.382904 
L 203.3169 68.359465 
L 205.356187 67.526284 
L 207.395475 68.15117 
L 209.434762 67.169206 
L 213.513337 66.321147 
L 215.552624 65.473088 
L 217.591911 64.773812 
L 219.631199 66.202122 
L 221.670486 65.220158 
L 223.709773 65.71114 
L 225.749061 64.863081 
L 227.788348 64.595273 
L 229.827635 66.336026 
L 231.866923 65.130889 
L 233.90621 65.740896 
L 235.945497 65.949192 
L 237.984785 64.967229 
L 240.024072 65.116011 
L 242.063359 64.178682 
L 244.102647 64.982107 
L 246.141934 65.443332 
L 248.181221 65.398697 
L 250.220509 64.877959 
L 252.259796 63.657944 
L 254.299083 64.550638 
L 256.338371 64.580395 
L 258.377658 64.818446 
L 260.416946 65.815288 
L 262.456233 65.755775 
L 264.49552 65.368941 
L 268.574095 65.487967 
L 272.65267 67.481649 
L 274.691957 66.529443 
L 276.731244 66.231878 
L 278.770532 67.541162 
L 280.809819 65.904557 
L 282.849106 64.684542 
L 284.888394 65.220158 
L 288.966968 63.970387 
L 291.006256 65.502845 
L 293.045543 63.86624 
L 295.08483 64.922594 
L 297.124118 66.187243 
L 299.163405 64.089413 
L 301.202692 65.101133 
L 303.24198 63.821605 
L 305.281267 64.818446 
L 307.320554 64.253074 
L 309.359842 63.345502 
L 311.399129 65.160646 
L 313.438417 64.461369 
L 315.477704 63.925753 
L 317.516991 64.178682 
L 319.556279 64.015022 
L 321.595566 64.922594 
L 323.634853 63.881118 
L 325.674141 63.509162 
L 327.713428 64.089413 
L 329.752715 63.226476 
L 331.792003 64.089413 
L 333.83129 63.241354 
L 335.870577 64.134048 
L 337.909865 62.795007 
L 339.949152 64.208439 
L 341.988439 63.27111 
L 344.027727 63.315745 
L 346.067014 63.762092 
L 348.106301 63.851361 
L 350.145589 62.85452 
L 352.184876 63.598432 
L 354.224163 62.988424 
L 356.263451 63.836483 
L 358.302738 63.256232 
L 360.342025 63.538919 
L 362.381313 63.449649 
L 364.4206 62.943789 
L 366.459888 63.419893 
L 370.538462 64.044778 
L 374.617037 62.43793 
L 376.656324 63.77697 
L 378.695612 62.586712 
L 380.734899 64.044778 
L 382.774186 63.181841 
L 384.813474 64.327465 
L 386.852761 63.598432 
L 388.892048 64.267952 
L 390.931336 63.821605 
L 392.970623 64.253074 
L 395.00991 63.390136 
L 397.049198 63.226476 
L 399.088485 63.985265 
L 401.127772 64.28283 
L 403.16706 65.309428 
L 405.206347 64.267952 
L 407.245634 64.223317 
L 409.284922 64.580395 
L 411.324209 63.464527 
L 413.363496 63.925753 
L 415.402784 64.744055 
L 417.442071 64.059657 
L 419.481358 62.914033 
L 421.520646 64.015022 
L 423.559933 63.628188 
L 425.599221 64.922594 
L 427.638508 64.53576 
L 429.677795 63.226476 
L 431.717083 64.104291 
L 433.75637 64.506003 
L 435.795657 65.071376 
L 437.834945 64.312586 
L 439.874232 62.958668 
L 441.913519 63.821605 
L 443.952807 63.137206 
L 445.992094 63.583553 
L 450.070669 62.661103 
L 452.109956 62.408173 
L 454.149243 63.553797 
L 456.188531 63.122328 
L 458.227818 63.717457 
L 460.267105 62.988424 
L 462.306393 63.003302 
L 464.34568 64.95235 
L 466.384967 63.211598 
L 468.424255 62.809885 
L 470.463542 63.479406 
L 472.502829 63.672823 
L 476.581404 63.256232 
L 478.620692 63.375258 
L 480.659979 62.973546 
L 482.699266 63.747214 
L 484.738554 63.821605 
L 486.777841 63.568675 
L 486.777841 63.568675 
" style="fill:none;stroke:#2ca02c;stroke-linecap:square;stroke-width:1.5;"/>
   </g>
   <g id="line2d_12">
    <path clip-path="url(#pd30d255d81)" d="M 80.959659 145.919671 
L 282.849106 145.889915 
L 284.888394 67.64531 
L 286.927681 68.657029 
L 288.966968 67.570919 
L 291.006256 67.169206 
L 293.045543 67.154328 
L 295.08483 67.660188 
L 297.124118 68.538003 
L 299.163405 67.005546 
L 301.202692 67.451893 
L 303.24198 66.455051 
L 305.281267 66.812129 
L 307.320554 66.916277 
L 309.359842 65.949192 
L 311.399129 66.990668 
L 313.438417 66.484808 
L 315.477704 66.142609 
L 317.516991 68.805812 
L 319.556279 68.835568 
L 321.595566 69.772896 
L 323.634853 70.055583 
L 325.674141 69.564601 
L 327.713428 70.055583 
L 329.752715 68.642151 
L 331.792003 68.939716 
L 333.83129 69.594358 
L 335.870577 69.906801 
L 337.909865 68.359465 
L 339.949152 69.400941 
L 341.988439 68.657029 
L 344.027727 68.15117 
L 346.067014 69.371184 
L 348.106301 69.118254 
L 350.145589 68.597516 
L 352.184876 69.609236 
L 354.224163 68.478491 
L 356.263451 70.992911 
L 358.302738 69.772896 
L 360.342025 69.594358 
L 362.381313 70.070461 
L 364.4206 69.802653 
L 366.459888 69.192646 
L 368.499175 70.963155 
L 370.538462 69.415819 
L 374.617037 67.80897 
L 378.695612 69.832409 
L 380.734899 69.728262 
L 382.774186 68.374343 
L 384.813474 68.999229 
L 386.852761 68.493369 
L 388.892048 69.088498 
L 390.931336 69.088498 
L 392.970623 68.924837 
L 395.00991 68.195804 
L 397.049198 67.585797 
L 399.088485 68.776055 
L 401.127772 69.192646 
L 403.16706 69.99607 
L 405.206347 69.028985 
L 407.245634 67.80897 
L 409.284922 69.192646 
L 411.324209 68.582638 
L 413.363496 69.148011 
L 415.402784 68.538003 
L 417.442071 69.713384 
L 419.481358 67.838727 
L 421.520646 68.776055 
L 423.559933 67.675066 
L 425.599221 70.710225 
L 427.638508 69.311671 
L 429.677795 68.180926 
L 431.717083 70.204365 
L 433.75637 69.683627 
L 435.795657 69.460454 
L 437.834945 68.523125 
L 439.874232 68.657029 
L 441.913519 69.49021 
L 443.952807 69.07362 
L 445.992094 69.118254 
L 448.031381 68.463612 
L 450.070669 68.299952 
L 452.109956 68.686786 
L 454.149243 69.653871 
L 456.188531 69.430697 
L 458.227818 68.746299 
L 462.306393 68.359465 
L 464.34568 69.043863 
L 466.384967 69.356306 
L 468.424255 68.0619 
L 470.463542 68.523125 
L 472.502829 69.133133 
L 474.542117 70.278756 
L 476.581404 68.835568 
L 478.620692 68.776055 
L 482.699266 69.043863 
L 484.738554 68.761177 
L 486.777841 68.299952 
L 486.777841 68.299952 
" style="fill:none;stroke:#d62728;stroke-linecap:square;stroke-width:1.5;"/>
   </g>
   <g id="line2d_13">
    <path clip-path="url(#pd30d255d81)" d="M 80.959659 145.919671 
L 170.688302 145.889915 
L 172.72759 145.800646 
L 180.884739 145.875037 
L 184.963314 145.875037 
L 187.002601 145.800646 
L 189.041888 145.860158 
L 195.15975 145.622107 
L 199.238325 145.726254 
L 201.277612 145.622107 
L 203.3169 145.756011 
L 219.631199 145.785767 
L 223.709773 145.666741 
L 229.827635 145.830402 
L 233.90621 145.726254 
L 237.984785 145.741133 
L 250.220509 145.726254 
L 258.377658 145.830402 
L 264.49552 145.770889 
L 268.574095 145.815524 
L 270.613382 145.726254 
L 272.65267 145.756011 
L 274.691957 145.607229 
L 278.770532 145.800646 
L 280.809819 145.666741 
L 286.927681 145.756011 
L 288.966968 145.785767 
L 291.006256 145.666741 
L 303.24198 145.800646 
L 305.281267 145.636985 
L 313.438417 145.636985 
L 315.477704 145.800646 
L 319.556279 145.726254 
L 325.674141 145.68162 
L 333.83129 145.651863 
L 337.909865 145.666741 
L 339.949152 145.741133 
L 344.027727 145.68162 
L 350.145589 145.696498 
L 364.4206 145.696498 
L 384.813474 145.711376 
L 386.852761 75.218328 
L 388.892048 75.843214 
L 390.931336 75.694432 
L 392.970623 75.932483 
L 395.00991 74.623199 
L 397.049198 74.920764 
L 399.088485 74.638077 
L 401.127772 76.230048 
L 403.16706 73.819775 
L 405.206347 76.453221 
L 407.245634 75.783701 
L 409.284922 73.983435 
L 411.324209 73.998313 
L 413.363496 73.849531 
L 415.402784 74.905885 
L 417.442071 73.388306 
L 419.481358 74.206609 
L 421.520646 73.745384 
L 423.559933 74.519051 
L 425.599221 73.403184 
L 427.638508 73.254402 
L 429.677795 74.206609 
L 431.717083 72.480734 
L 433.75637 71.602919 
L 435.795657 72.495612 
L 439.874232 72.331952 
L 441.913519 73.135376 
L 443.952807 71.111937 
L 445.992094 71.379745 
L 448.031381 73.596601 
L 450.070669 73.031229 
L 452.109956 72.242682 
L 454.149243 72.495612 
L 456.188531 71.409502 
L 458.227818 72.733664 
L 460.267105 70.799494 
L 462.306393 72.495612 
L 464.34568 73.26928 
L 466.384967 70.948277 
L 468.424255 72.376586 
L 470.463542 72.331952 
L 472.502829 71.751701 
L 474.542117 71.721944 
L 476.581404 73.432941 
L 478.620692 72.123657 
L 480.659979 71.439258 
L 482.699266 70.606077 
L 484.738554 72.317074 
L 486.777841 72.391465 
L 486.777841 72.391465 
" style="fill:none;stroke:#9467bd;stroke-linecap:square;stroke-width:1.5;"/>
   </g>
   <g id="patch_3">
    <path d="M 60.66875 151.034063 
L 60.66875 40.154062 
" style="fill:none;stroke:#000000;stroke-linecap:square;stroke-linejoin:miter;stroke-width:0.8;"/>
   </g>
   <g id="patch_4">
    <path d="M 507.06875 151.034063 
L 507.06875 40.154062 
" style="fill:none;stroke:#000000;stroke-linecap:square;stroke-linejoin:miter;stroke-width:0.8;"/>
   </g>
   <g id="patch_5">
    <path d="M 60.66875 151.034063 
L 507.06875 151.034063 
" style="fill:none;stroke:#000000;stroke-linecap:square;stroke-linejoin:miter;stroke-width:0.8;"/>
   </g>
   <g id="patch_6">
    <path d="M 60.66875 40.154063 
L 507.06875 40.154063 
" style="fill:none;stroke:#000000;stroke-linecap:square;stroke-linejoin:miter;stroke-width:0.8;"/>
   </g>
  </g>
 </g>
 <defs>
  <clipPath id="pd30d255d81">
   <rect height="110.88" width="446.4" x="60.66875" y="40.154063"/>
  </clipPath>
 </defs>
</svg>
